<?xml version="1.0" standalone="no"?>
<!DOCTYPE svg PUBLIC "-//W3C//DTD SVG 20010904//EN"
 "http://www.w3.org/TR/2001/REC-SVG-20010904/DTD/svg10.dtd">
<svg version="1.0" xmlns="http://www.w3.org/2000/svg"
 width="750.000000pt" height="150.000000pt" viewBox="0 0 750.000000 150.000000"
 preserveAspectRatio="xMidYMid meet">

<g transform="translate(0.000000,150.000000) scale(0.100000,-0.100000)"
fill="#ffffff" stroke="none">
<path d="M4575 1106 c-45 -20 -76 -59 -82 -103 -4 -33 -10 -41 -36 -49 -62
-19 -61 -70 2 -88 l31 -9 0 -188 c0 -176 1 -189 19 -199 29 -15 56 -12 74 8
15 16 17 45 17 199 l0 180 46 6 c49 5 64 18 64 54 0 27 -27 43 -74 43 -28 0
-36 4 -36 18 0 38 49 55 89 31 24 -16 68 -4 76 21 21 65 -103 115 -190 76z"/>
<path d="M3649 1096 c-27 -13 -37 -59 -18 -82 14 -17 70 -19 87 -2 16 16 15
63 0 75 -24 18 -45 21 -69 9z"/>
<path d="M6419 1096 l-24 -12 -3 -296 c-2 -259 0 -298 14 -312 17 -18 51 -21
74 -6 12 7 16 41 20 158 5 142 6 150 32 184 36 47 89 72 141 65 84 -11 107
-72 107 -278 0 -107 2 -119 19 -129 32 -17 60 -11 77 15 14 21 15 48 12 177
-5 163 -14 199 -61 250 -43 46 -85 62 -162 62 -63 0 -90 -7 -157 -42 -5 -2 -8
30 -8 71 0 48 -4 78 -12 84 -24 18 -45 21 -69 9z"/>
<path d="M1910 1089 c-13 -5 -28 -15 -32 -22 -4 -7 -8 -138 -8 -293 0 -260 1
-282 18 -297 24 -22 55 -21 75 1 12 13 17 43 19 122 l3 105 169 3 c177 3 196
7 196 46 0 43 -15 46 -197 46 l-173 0 0 100 0 100 176 0 c102 0 183 4 195 10
20 11 25 45 9 70 -8 12 -45 15 -217 17 -123 1 -218 -2 -233 -8z"/>
<path d="M3186 969 c-89 -21 -139 -77 -139 -156 0 -86 56 -124 213 -143 135
-16 167 -41 114 -91 -23 -21 -35 -24 -106 -24 l-80 0 -36 43 c-41 46 -69 53
-96 23 -35 -39 3 -105 82 -145 77 -39 233 -29 304 20 65 46 87 128 48 191 -27
45 -67 62 -168 74 -145 18 -157 21 -160 50 -4 36 28 61 87 67 68 6 96 -3 137
-44 27 -27 41 -33 57 -28 60 18 63 60 10 114 -55 54 -162 74 -267 49z"/>
<path d="M4017 970 c-57 -15 -90 -35 -130 -79 -42 -47 -60 -102 -60 -187 1
-77 27 -137 81 -186 128 -116 347 -76 418 76 26 56 32 143 14 208 -15 54 -68
117 -120 144 -52 27 -146 38 -203 24z m131 -104 c116 -61 120 -247 5 -301 -44
-21 -114 -16 -152 12 -62 46 -79 144 -38 223 36 70 119 100 185 66z"/>
<path d="M5352 966 c-88 -29 -141 -83 -168 -172 -44 -149 26 -290 165 -331
121 -35 281 14 281 87 0 55 -35 63 -106 25 -53 -28 -108 -32 -158 -11 -32 13
-76 63 -76 85 0 8 56 11 179 11 203 0 211 3 211 70 0 94 -61 195 -137 226 -50
21 -141 26 -191 10z m152 -101 c34 -16 54 -42 67 -87 l8 -28 -146 0 -145 0 7
28 c20 81 127 126 209 87z"/>
<path d="M5922 962 c-28 -10 -61 -27 -73 -38 -76 -69 -60 -191 30 -227 21 -9
82 -20 135 -26 114 -13 136 -22 136 -56 0 -78 -206 -90 -245 -15 -16 32 -45
45 -75 35 -62 -20 -28 -113 55 -155 42 -21 64 -25 140 -25 76 0 98 4 140 25
64 32 95 78 95 139 0 46 -17 83 -50 108 -22 17 -83 31 -185 42 -96 11 -121 25
-110 60 9 29 55 51 109 51 58 0 92 -13 127 -51 31 -33 61 -33 87 -1 16 21 15
31 -8 70 -42 69 -201 102 -308 64z"/>
<path d="M2468 953 c-8 -10 -18 -24 -22 -31 -4 -7 35 -95 95 -212 l103 -200
-43 -88 c-48 -98 -47 -125 6 -138 41 -11 61 21 221 342 126 250 143 290 133
310 -12 28 -55 41 -76 24 -8 -7 -51 -81 -95 -166 -45 -85 -83 -154 -85 -154
-3 0 -37 64 -76 143 -92 185 -121 216 -161 170z"/>
<path d="M3637 952 c-15 -16 -17 -48 -17 -240 0 -239 3 -252 55 -252 52 0 55
13 55 255 0 220 0 224 -22 239 -29 21 -51 20 -71 -2z"/>
<path d="M4852 954 c-22 -15 -22 -19 -22 -238 0 -203 2 -224 18 -239 23 -21
56 -22 76 -1 13 12 16 39 16 129 0 192 23 249 106 262 50 8 64 19 64 54 0 54
-76 63 -136 17 -19 -16 -29 -18 -32 -10 -13 40 -53 52 -90 26z"/>
</g>
</svg>
